<?xml version="1.0" encoding="UTF-8" standalone="no"?>
<!-- Created with Inkscape (http://www.inkscape.org/) -->

<svg
   xmlns:dc="http://purl.org/dc/elements/1.1/"
   xmlns:cc="http://creativecommons.org/ns#"
   xmlns:rdf="http://www.w3.org/1999/02/22-rdf-syntax-ns#"
   xmlns:svg="http://www.w3.org/2000/svg"
   xmlns="http://www.w3.org/2000/svg"
   xmlns:sodipodi="http://sodipodi.sourceforge.net/DTD/sodipodi-0.dtd"
   xmlns:inkscape="http://www.inkscape.org/namespaces/inkscape"
   id="svg2"
   version="1.1"
   inkscape:version="0.48.4 r9939"
   width="580"
   height="450"
   xml:space="preserve"
   sodipodi:docname="fantasquesans_text.svg"><metadata
     id="metadata8"><rdf:RDF><cc:Work
         rdf:about=""><dc:format>image/svg+xml</dc:format><dc:type
           rdf:resource="http://purl.org/dc/dcmitype/StillImage" /><dc:title /></cc:Work></rdf:RDF></metadata><defs
     id="defs6"><clipPath
       clipPathUnits="userSpaceOnUse"
       id="clipPath16"><path
         d="m 0,0.1 595.2,0 0,841.8 L 0,841.9 0,0.1 z"
         clip-rule="evenodd"
         id="path18"
         inkscape:connector-curvature="0" /></clipPath><clipPath
       id="clipPath3763"
       clipPathUnits="userSpaceOnUse"><path
         id="path3765-3"
         clip-rule="evenodd"
         d="m 0,0.1 595.2,0 0,841.8 L 0,841.9 0,0.1 z"
         inkscape:connector-curvature="0" /></clipPath><clipPath
       id="clipPath3763-3"
       clipPathUnits="userSpaceOnUse"><path
         inkscape:connector-curvature="0"
         id="path3765-3-5"
         clip-rule="evenodd"
         d="m 0,0.1 595.2,0 0,841.8 L 0,841.9 0,0.1 z" /></clipPath></defs><sodipodi:namedview
     pagecolor="#ffffff"
     bordercolor="#666666"
     borderopacity="1"
     objecttolerance="10"
     gridtolerance="10"
     guidetolerance="10"
     inkscape:pageopacity="0"
     inkscape:pageshadow="2"
     inkscape:window-width="1600"
     inkscape:window-height="855"
     id="namedview4"
     showgrid="false"
     inkscape:zoom="0.89691212"
     inkscape:cx="139.03181"
     inkscape:cy="89.883922"
     inkscape:window-x="0"
     inkscape:window-y="25"
     inkscape:window-maximized="1"
     inkscape:current-layer="g10" /><g
     id="g10"
     inkscape:groupmode="layer"
     inkscape:label="Test5"
     transform="matrix(1.25,0,0,-1.25,0,449.99998)"><g
       id="g5436"
       transform="matrix(0.95011767,0,0,0.95011767,-389.46314,40.890674)"><text
         style="font-size:9.03954315px;font-style:normal;font-variant:normal;font-weight:normal;font-stretch:normal;font-family:FantasqueSans;-inkscape-font-specification:FantasqueSans"
         y="-262.85651"
         x="473.50504"
         transform="scale(1,-1)"
         id="text3775"><tspan
           x="473.50504 486.68469 500.29825 513.74908 525.03046 538.64398 549.27448 562.64398 575.66095 589.4101 599.93213 614.25073 627.86432 641.31512"
           y="-262.85651"
           style="font-size:27.11863136px;font-style:normal;font-variant:normal;font-weight:normal;font-stretch:normal;writing-mode:lr-tb;fill:#000000;fill-opacity:1;fill-rule:nonzero;stroke:none;font-family:FantasqueSans;-inkscape-font-specification:FantasqueSans"
           sodipodi:role="line"
           id="tspan3777">Fantasque Sans</tspan></text>
<text
         style="font-size:9.03954315px;font-style:normal;font-variant:normal;font-weight:normal;font-stretch:normal;font-family:FantasqueSans;-inkscape-font-specification:FantasqueSans"
         y="-212.00906"
         x="473.50504"
         transform="scale(1,-1)"
         id="text3781"><tspan
           style="font-size:6.77965784px;font-style:normal;font-variant:normal;font-weight:normal;font-stretch:normal;writing-mode:lr-tb;fill:#000000;fill-opacity:1;fill-rule:nonzero;stroke:none;font-family:FantasqueSans;-inkscape-font-specification:FantasqueSans"
           x="473.50504 476.36606 478.99658 482.30505"
           y="-212.00906"
           sodipodi:role="line"
           id="tspan3783">9 pt</tspan></text>
<text
         style="font-size:9.03954315px;font-style:normal;font-variant:normal;font-weight:normal;font-stretch:normal;font-family:FantasqueSans;-inkscape-font-specification:FantasqueSans"
         y="-212.00906"
         x="524.87976"
         transform="scale(1,-1)"
         id="text3787"><tspan
           style="font-size:6.77965784px;font-style:normal;font-variant:normal;font-weight:normal;font-stretch:normal;writing-mode:lr-tb;fill:#000000;fill-opacity:1;fill-rule:nonzero;stroke:none;font-family:FantasqueSans;-inkscape-font-specification:FantasqueSans"
           x="524.87976 528.19507 531.65265 534.35773 536.98828 540.30353 543.69336 545.3476 547.82892 550.534 553.16455 558.05945 561.52386 563.09674 565.88318 569.04248 572.43231 573.78827 577.24585 579.95093 582.58148 585.74078 589.13062 591.91705 593.42212 595.83569 598.54077 601.17126 604.47974 607.94415 611.32721 614.56787 617.9577 621.34076 624.19501 626.8255 630.21533 632.84583 636.68988 640.1543 643.61194 644.9679 647.59839 651.13055 654.37128 657.00177 658.50684 659.86279 662.49329 665.9577 669.41534 670.77124 674.22888 676.85938 679.56445 683.02887 686.41193 689.19836 691.82886 694.53394 697.7746 700.71021 703.41528 706.04578 709.2865 710.79156 714.24921 717.03564 720.039 723.49664 726.12714 729.36786 732.82544 736.13391 739.30005 742.00513 744.63562 748.09326 750.8797 753.51019 756.75085 760.2085 762.83899 765.7746 769.30676 770.81189 773.81525 776.4458 777.8017 781.25934 784.5 787.43561 790.14069 792.77118 796.01184 799.01526 802.47968 803.83557 807.29321 809.99829 812.62878 815.86951 817.37457 822.2627 825.50336 827.91693 830.62201 832.1203 833.55084"
           y="-212.00906"
           sodipodi:role="line"
           id="tspan3789">Les naïfs ægithales hâtifs pondant à Noël où il gèle sont sûrs d'être déçus et de voir leurs drôles d'œufs...</tspan></text>
<text
         style="font-size:9.03954315px;font-style:normal;font-variant:normal;font-weight:normal;font-stretch:normal;font-family:FantasqueSans;-inkscape-font-specification:FantasqueSans"
         y="-204.25012"
         x="524.87976"
         transform="scale(1,-1)"
         id="text3793"><tspan
           style="font-size:6.77965784px;font-style:normal;font-variant:normal;font-weight:normal;font-stretch:normal;writing-mode:lr-tb;fill:#000000;fill-opacity:1;fill-rule:nonzero;stroke:none;font-family:FantasqueSans;-inkscape-font-specification:FantasqueSans"
           x="524.87976 528.19507 531.65265 534.2832 537.52386 540.9137 543.61877 546.25604 549.71368 551.21875 554.60181 557.2323 560.68994 564.073 566.70349 570.09332 572.7984 575.58484 578.21533 581.5238 584.52722 585.9577 588.66278 591.29333 593.17126 595.80182 598.35773 601.74756 604.37805 607.68652 611.07635 614.01196 616.71704 618.14075 620.77124 623.93738 627.09668 630.55432 633.55768 636.18823 640.18146 643.34076 646.73059 649.73395 653.19159 657.71362 661.10345 664.48651 667.94415"
           y="-204.25012"
           sodipodi:role="line"
           id="tspan3795">Le dessein en est pris : je pars, cher Théramène,</tspan></text>
<text
         style="font-size:9.03954315px;font-style:normal;font-variant:normal;font-weight:normal;font-stretch:normal;font-family:FantasqueSans;-inkscape-font-specification:FantasqueSans"
         y="-196.49118"
         x="524.87976"
         transform="scale(1,-1)"
         id="text3799"><tspan
           style="font-size:6.77965784px;font-style:normal;font-variant:normal;font-weight:normal;font-stretch:normal;writing-mode:lr-tb;fill:#000000;fill-opacity:1;fill-rule:nonzero;stroke:none;font-family:FantasqueSans;-inkscape-font-specification:FantasqueSans"
           x="524.87976 528.19507 532.18823 534.81879 538.96112 542.7984 544.22217 547.99164 551.98486 555.36792 557.99841 561.38147 564.69672 567.32721 570.93402 574.24927 577.6391 581.77466 585.61194 589.14417 591.77466 595.61871 599.00177 601.63232 605.01532 606.44586 610.43231 611.85602 615.84924 619.83569 623.22552 626.60858 629.99158 632.62213 636.6153 640.14752 643.46277 647.44922 650.76447 654.60852 657.99158"
           y="-196.49118"
           sodipodi:role="line"
           id="tspan3801">ET QUITTE LE SÉJOUR DE L'AIMABLE TRÉZÈNE.</tspan></text>
<text
         style="font-size:9.03954315px;font-style:normal;font-variant:normal;font-weight:normal;font-stretch:normal;font-family:FantasqueSans;-inkscape-font-specification:FantasqueSans"
         y="-188.73224"
         x="524.87976"
         transform="scale(1,-1)"
         id="text3805"><tspan
           style="font-size:6.77965784px;font-style:normal;font-variant:normal;font-weight:normal;font-stretch:normal;writing-mode:lr-tb;fill:#000000;fill-opacity:1;fill-rule:nonzero;stroke:none;font-family:FantasqueSans;-inkscape-font-specification:FantasqueSans"
           x="524.87976 526.23572 529.39502 532.39844 535.02893 538.41199 541.80182 544.96112 547.74756 550.37805 553.83569 557.07635 560.3103 563.4696 566.1001 570.7713 572.27637 575.73401 578.90009 582.35773 585.36115 586.78485 589.41534 592.05261 595.28656 598.44586 603.11707 606.5069 609.88989 612.98145 616.43909 619.82214 623.06281 626.52039 629.15094 632.68988 636.14752 638.8526 641.63904 645.02887 646.38483 649.17126 652.62891 656.0119"
           y="-188.73224"
           sodipodi:role="line"
           id="tspan3807">Ihr naht euch wieder, schwankende Gestalten,</tspan></text>
<text
         style="font-size:9.03954315px;font-style:normal;font-variant:normal;font-weight:normal;font-stretch:normal;font-family:FantasqueSans;-inkscape-font-specification:FantasqueSans"
         y="-180.9733"
         x="524.87976"
         transform="scale(1,-1)"
         id="text3811"><tspan
           style="font-size:6.77965784px;font-style:normal;font-variant:normal;font-weight:normal;font-stretch:normal;writing-mode:lr-tb;fill:#000000;fill-opacity:1;fill-rule:nonzero;stroke:none;font-family:FantasqueSans;-inkscape-font-specification:FantasqueSans"
           x="524.87976 528.72388 530.14758 533.46283 536.09332 539.40179 542.93402 546.7713 550.534 553.16455 556.70349 558.12726 561.74078 565.50348 568.13403 571.44928 572.87299 576.71704 579.88318 583.87634 586.5069 590.35095 593.6662 597.80182 600.43231 604.42554 607.9577 611.79498 615.18481 618.50006 622.41193 625.04248 628.43231 631.74756 633.17126 636.78485 640.31702 642.94751 646.55432 649.86957 653.85602 657.17126 658.52716 662.13397 666.19495"
           y="-180.9733"
           sodipodi:role="line"
           id="tspan3813">DIE FRÜH SICH EINST DEM TRÜBEN BLICK GEZEIGT.</tspan></text>
<text
         style="font-size:9.03954315px;font-style:normal;font-variant:normal;font-weight:normal;font-stretch:normal;font-family:FantasqueSans;-inkscape-font-specification:FantasqueSans"
         y="-155.58725"
         x="473.50504"
         transform="scale(1,-1)"
         id="text3817"><tspan
           style="font-size:9.03954315px;font-style:normal;font-variant:normal;font-weight:normal;font-stretch:normal;writing-mode:lr-tb;fill:#000000;fill-opacity:1;fill-rule:nonzero;stroke:none;font-family:FantasqueSans;-inkscape-font-specification:FantasqueSans"
           x="473.50504 476.28922 480.27567 483.81012 488.17624"
           y="-155.58725"
           sodipodi:role="line"
           id="tspan3819">12 pt</tspan></text>
<text
         style="font-size:9.03954315px;font-style:normal;font-variant:normal;font-weight:normal;font-stretch:normal;font-family:FantasqueSans;-inkscape-font-specification:FantasqueSans"
         y="-155.58725"
         x="524.87976"
         transform="scale(1,-1)"
         id="text3823"><tspan
           style="font-size:9.03954315px;font-style:normal;font-variant:normal;font-weight:normal;font-stretch:normal;writing-mode:lr-tb;fill:#000000;fill-opacity:1;fill-rule:nonzero;stroke:none;font-family:FantasqueSans;-inkscape-font-specification:FantasqueSans"
           x="524.87976 529.32727 533.91028 537.51709 540.97919 545.48993 550.0097 552.19727 555.50574 559.04926 562.58374 569.13739 573.80182 575.82666 579.5871 583.79956 588.31934 590.1272 594.71027 598.31702 601.77917 605.99164 610.51141 614.27185 616.29669 619.60516 623.14868 626.68311 631.04926 635.6413 640.15204 644.50909 649.02887 653.53961 657.30005 660.76221 665.28198 668.81647 674.00513 678.66956 683.25262 685.06049 688.52264 693.18707 697.54413 701.07855 703.10345 704.91132 708.37347 713.0379 717.62091 719.42883 724.0119 727.54639 731.08984 735.75427 740.26501 744.02545 747.48761 751.03107 755.38812 759.37457 762.98138 766.44348 770.7373 772.77118 777.35425 781.11469 785.10114 789.7655 793.22766 797.52148 802.10449 806.47064 810.8277 814.37115 816.32373 818.27625"
           y="-155.58725"
           sodipodi:role="line"
           id="tspan3825">Les naïfs ægithales hâtifs pondant à Noël où il gèle sont sûrs d'être déçus...</tspan></text>
<text
         style="font-size:9.03954315px;font-style:normal;font-variant:normal;font-weight:normal;font-stretch:normal;font-family:FantasqueSans;-inkscape-font-specification:FantasqueSans"
         y="-145.26711"
         x="524.87976"
         transform="scale(1,-1)"
         id="text3829"><tspan
           style="font-size:9.03954315px;font-style:normal;font-variant:normal;font-weight:normal;font-stretch:normal;writing-mode:lr-tb;fill:#000000;fill-opacity:1;fill-rule:nonzero;stroke:none;font-family:FantasqueSans;-inkscape-font-specification:FantasqueSans"
           x="524.87976 529.32727 533.91028 537.44476 541.73853 546.32159 549.86511 553.40857 557.99164 560.01648 564.52722 568.06171 572.58148 577.09216 580.62665 585.20972 588.75323 592.51367 596.0481 600.41425 604.40063 606.42554 609.96899 613.50348 615.98029 619.44244 622.82324 627.40631 630.94073 635.30682 639.8266 643.81305 647.35657 649.22778 652.76221 657.04694 661.2594 665.84241 669.82886 673.29102 678.63336 682.84583 687.42883 691.41528 695.93506 702.02771 706.54749 711.05823 715.6413"
           y="-145.26711"
           sodipodi:role="line"
           id="tspan3831">Le dessein en est pris : je pars, cher Théramène,</tspan></text>
<text
         style="font-size:9.03954315px;font-style:normal;font-variant:normal;font-weight:normal;font-stretch:normal;font-family:FantasqueSans;-inkscape-font-specification:FantasqueSans"
         y="-134.87163"
         x="524.87976"
         transform="scale(1,-1)"
         id="text3835"><tspan
           style="font-size:9.03954315px;font-style:normal;font-variant:normal;font-weight:normal;font-stretch:normal;writing-mode:lr-tb;fill:#000000;fill-opacity:1;fill-rule:nonzero;stroke:none;font-family:FantasqueSans;-inkscape-font-specification:FantasqueSans"
           x="524.87976 529.32727 534.66962 538.2041 543.70013 548.81653 550.68768 555.73175 561.0741 565.52161 569.05603 573.50348 577.95093 581.48541 586.29443 590.74188 595.26166 600.75769 605.87408 610.61084 614.07294 619.26166 623.70911 627.24359 631.75433 633.78821 638.98596 640.85712 646.27179 651.54187 656.06165 660.57239 665.01984 668.55432 673.82434 678.5611 683.00854 688.27856 692.72601 697.91473 702.36218"
           y="-134.87163"
           sodipodi:role="line"
           id="tspan3837">ET QUITTE LE SÉJOUR DE L'AIMABLE TRÉZÈNE.</tspan></text>
<text
         style="font-size:9.03954315px;font-style:normal;font-variant:normal;font-weight:normal;font-stretch:normal;font-family:FantasqueSans;-inkscape-font-specification:FantasqueSans"
         y="-124.55148"
         x="524.87976"
         transform="scale(1,-1)"
         id="text3841"><tspan
           style="font-size:9.03954315px;font-style:normal;font-variant:normal;font-weight:normal;font-stretch:normal;writing-mode:lr-tb;fill:#000000;fill-opacity:1;fill-rule:nonzero;stroke:none;font-family:FantasqueSans;-inkscape-font-specification:FantasqueSans"
           x="524.87976 526.68768 530.90015 534.88654 538.42102 542.93176 547.45154 551.66394 555.42444 558.88654 563.4696 567.82666 572.11139 576.32385 579.78595 586.04132 588.06622 592.64923 596.94305 601.52606 605.51251 607.38373 610.91815 614.46167 618.7464 622.95886 629.21417 633.66168 638.17236 642.38483 646.9679 651.47858 655.7724 660.35541 663.88989 668.63568 673.21869 676.76221 680.52264 685.10571 686.91364 690.67407 695.25708 699.70459"
           y="-124.55148"
           sodipodi:role="line"
           id="tspan3843">Ihr naht euch wieder, schwankende Gestalten,</tspan></text>
<text
         style="font-size:9.03954315px;font-style:normal;font-variant:normal;font-weight:normal;font-stretch:normal;font-family:FantasqueSans;-inkscape-font-specification:FantasqueSans"
         y="-114.156"
         x="524.87976"
         transform="scale(1,-1)"
         id="text3847"><tspan
           style="font-size:9.03954315px;font-style:normal;font-variant:normal;font-weight:normal;font-stretch:normal;writing-mode:lr-tb;fill:#000000;fill-opacity:1;fill-rule:nonzero;stroke:none;font-family:FantasqueSans;-inkscape-font-specification:FantasqueSans"
           x="524.87976 530.00519 531.8764 536.32385 539.85834 544.22443 548.96112 554.07751 559.04926 562.58374 567.39276 569.26398 574.08203 579.05377 582.58826 587.03571 588.84363 594.03229 598.25378 603.59613 607.13062 612.25604 616.70349 622.11816 625.65265 630.92267 635.65942 640.77576 645.29553 649.74298 654.9317 658.46619 662.98596 667.49664 669.36786 674.11359 678.77802 682.3125 687.12152 691.56897 696.83905 701.2865 703.15765 707.96674 713.30908"
           y="-114.156"
           sodipodi:role="line"
           id="tspan3849">DIE FRÜH SICH EINST DEM TRÜBEN BLICK GEZEIGT.</tspan></text>
<text
         style="font-size:9.03954315px;font-style:normal;font-variant:normal;font-weight:normal;font-stretch:normal;font-family:FantasqueSans;-inkscape-font-specification:FantasqueSans"
         y="-74.608002"
         x="473.50504"
         transform="scale(1,-1)"
         id="text3853"><tspan
           style="font-size:13.55931568px;font-style:normal;font-variant:normal;font-weight:normal;font-stretch:normal;writing-mode:lr-tb;fill:#000000;fill-opacity:1;fill-rule:nonzero;stroke:none;font-family:FantasqueSans;-inkscape-font-specification:FantasqueSans"
           x="473.50504 477.72198 483.66098 488.922 495.47113"
           y="-74.608002"
           sodipodi:role="line"
           id="tspan3855">18 pt</tspan></text>
<text
         style="font-size:9.03954315px;font-style:normal;font-variant:normal;font-weight:normal;font-stretch:normal;font-family:FantasqueSans;-inkscape-font-specification:FantasqueSans"
         y="-74.608002"
         x="524.87976"
         transform="scale(1,-1)"
         id="text3859"><tspan
           style="font-size:13.55931568px;font-style:normal;font-variant:normal;font-weight:normal;font-stretch:normal;writing-mode:lr-tb;fill:#000000;fill-opacity:1;fill-rule:nonzero;stroke:none;font-family:FantasqueSans;-inkscape-font-specification:FantasqueSans"
           x="524.87976 531.57806 538.43909 543.78149 549.04248 555.80859 562.58826 565.89673 570.79163 576.13403 581.39502 591.32043 598.24927 601.2594 606.90009 613.21875 620.06616 622.77808 629.63904 634.98145 640.24243 646.5611 653.34076 658.98145 662.05939 666.95428 672.29669 677.55768 684.10681 691.10345 697.80176 704.33734 711.117 717.81531 723.45593 728.71698 735.56445 740.82544 748.51355 755.51019 762.42542 765.13727 770.39832 777.3949 783.93054 789.19153 792.20166 794.91357 800.17456 807.10339 814.01862 816.73053 823.59149 826.52032 829.44916"
           y="-74.608002"
           sodipodi:role="line"
           id="tspan3861">Les naïfs ægithales hâtifs pondant à Noël où il gèle...</tspan></text>
<text
         style="font-size:9.03954315px;font-style:normal;font-variant:normal;font-weight:normal;font-stretch:normal;font-family:FantasqueSans;-inkscape-font-specification:FantasqueSans"
         y="-59.090118"
         x="524.87976"
         transform="scale(1,-1)"
         id="text3865"><tspan
           style="font-size:13.55931568px;font-style:normal;font-variant:normal;font-weight:normal;font-stretch:normal;writing-mode:lr-tb;fill:#000000;fill-opacity:1;fill-rule:nonzero;stroke:none;font-family:FantasqueSans;-inkscape-font-specification:FantasqueSans"
           x="524.87976 531.57806 538.43909 543.70013 550.18146 557.04248 562.38483 567.79504 574.65607 577.6662 584.43231 589.6933 596.55432 603.25262 608.51367 615.37463 620.71704 626.42548 631.68652 638.23566 644.24243 647.25262 652.59497 657.85602 661.54413 666.80518 671.91699 678.77802 684.039 690.5882 697.36786 703.37463 708.71698 711.49664 716.75769 723.15765 729.47632 736.33728 742.34406 747.6051 755.64581 761.96442 768.74408 774.75085 781.53052 790.62885 797.54407 804.24237 811.10339"
           y="-59.090118"
           sodipodi:role="line"
           id="tspan3867">Le dessein en est pris : je pars, cher Théramène,</tspan></text>
<text
         style="font-size:9.03954315px;font-style:normal;font-variant:normal;font-weight:normal;font-stretch:normal;font-family:FantasqueSans;-inkscape-font-specification:FantasqueSans"
         y="-43.572235"
         x="524.87976"
         transform="scale(1,-1)"
         id="text3871"><tspan
           style="font-size:13.55931568px;font-style:normal;font-variant:normal;font-weight:normal;font-stretch:normal;writing-mode:lr-tb;fill:#000000;fill-opacity:1;fill-rule:nonzero;stroke:none;font-family:FantasqueSans;-inkscape-font-specification:FantasqueSans"
           x="524.87976 531.51031 539.55096 544.81201 553.09674 560.7713 563.55096 571.08997 579.13062 585.81537 591.07635 597.77466 604.45941 609.7204 616.87976 623.56451 630.34412 638.6153 646.28992 653.35431 658.6153 666.35767 673.04242 678.30347 685.00177 688.07971 695.9848 698.76447 706.81866 714.72375 721.57123 728.26953 734.95428 740.21527 748.20172 755.26611 761.95087 769.85596 776.54065 784.28308 790.96777"
           y="-43.572235"
           sodipodi:role="line"
           id="tspan3873">ET QUITTE LE SÉJOUR DE L'AIMABLE TRÉZÈNE.</tspan></text>
<text
         style="font-size:9.03954315px;font-style:normal;font-variant:normal;font-weight:normal;font-stretch:normal;font-family:FantasqueSans;-inkscape-font-specification:FantasqueSans"
         y="-28.054352"
         x="524.87976"
         transform="scale(1,-1)"
         id="text3877"><tspan
           style="font-size:13.55931568px;font-style:normal;font-variant:normal;font-weight:normal;font-stretch:normal;writing-mode:lr-tb;fill:#000000;fill-opacity:1;fill-rule:nonzero;stroke:none;font-family:FantasqueSans;-inkscape-font-specification:FantasqueSans"
           x="524.87976 527.65942 533.91028 539.91705 545.1781 551.8764 558.65607 564.97467 570.68317 575.94415 582.80518 589.28656 595.68652 602.00519 607.26617 616.66278 619.67297 626.534 633.06958 639.9306 645.93738 648.71704 653.97803 659.32037 665.65259 671.97125 681.36786 688.14752 694.84583 701.16443 708.07971 714.77802 721.25934 728.17462 733.43561 740.64917 747.51019 752.85254 758.49323 765.27289 767.98474 773.62543 780.54071 787.23901"
           y="-28.054352"
           sodipodi:role="line"
           id="tspan3879">Ihr naht euch wieder, schwankende Gestalten,</tspan></text>
<text
         style="font-size:9.03954315px;font-style:normal;font-variant:normal;font-weight:normal;font-stretch:normal;font-family:FantasqueSans;-inkscape-font-specification:FantasqueSans"
         y="-12.536469"
         x="524.87976"
         transform="scale(1,-1)"
         id="text3883"><tspan
           style="font-size:13.55931568px;font-style:normal;font-variant:normal;font-weight:normal;font-stretch:normal;writing-mode:lr-tb;fill:#000000;fill-opacity:1;fill-rule:nonzero;stroke:none;font-family:FantasqueSans;-inkscape-font-specification:FantasqueSans"
           x="524.87976 532.56793 535.3476 542.03235 547.29333 553.91028 560.97467 568.64923 576.17468 581.43567 588.59503 591.37469 598.60181 606.1272 611.38824 618.07294 620.8526 628.59497 634.84583 642.88654 648.14752 655.83563 662.52039 670.57465 675.83563 683.87634 690.94073 698.54749 705.39496 712.07971 719.82208 725.08307 731.93054 738.62885 741.40851 748.63562 755.6322 760.89325 768.05255 774.7373 782.6424 789.32709 792.10675 799.26611 807.30676"
           y="-12.536469"
           sodipodi:role="line"
           id="tspan3885">DIE FRÜH SICH EINST DEM TRÜBEN BLICK GEZEIGT.</tspan></text>
</g><text
       xml:space="preserve"
       style="font-size:64px;font-style:normal;font-variant:normal;font-weight:normal;font-stretch:normal;text-align:start;line-height:125%;letter-spacing:0px;word-spacing:0px;writing-mode:lr-tb;text-anchor:start;fill:#000000;fill-opacity:1;stroke:none;font-family:FantasqueSans;-inkscape-font-specification:FantasqueSans"
       x="-370.15891"
       y="-535.60382"
       id="text4968"
       sodipodi:linespacing="125%"
       transform="matrix(0.8,0,0,-0.8,0,359.99998)"><tspan
         sodipodi:role="line"
         id="tspan4970"
         x="-370.15891"
         y="-535.60382" /></text>
</g></svg>